<?xml version="1.0" standalone="no"?><!DOCTYPE svg PUBLIC "-//W3C//DTD SVG 1.1//EN" "http://www.w3.org/Graphics/SVG/1.1/DTD/svg11.dtd"><svg t="1721822223914" class="icon" viewBox="0 0 1024 1024" version="1.1" xmlns="http://www.w3.org/2000/svg" p-id="1653" xmlns:xlink="http://www.w3.org/1999/xlink" width="200" height="200"><path d="M109.4 66.8c27-8.2 56.2 2.2 71.8 25.8l330.8 496L842.8 92.4c15.6-23.4 44.8-34 71.8-25.8S960 99.8 960 128v768c0 35.4-28.6 64-64 64s-64-28.6-64-64V339.4L565.2 739.6c-11.8 17.8-31.8 28.4-53.2 28.4s-41.4-10.6-53.2-28.4L192 339.4V896c0 35.4-28.6 64-64 64S64 931.4 64 896V128c0-28.2 18.4-53 45.4-61.2z" p-id="1654" fill="#d4237a"></path></svg>